# xmcd
#
# Track frame offsets: 
#        150
#        15605
#        29957
#        44740
#        56172
#        73985
#        87207
#        102622
#        115347
#        134260
#
# Disc length: 2049 seconds
#
# Revision: 3
# Processed by: cddbd v1.5PL3 Copyright (c) Steve Scherf et al.
# Submitted via: ExactAudioCopy v0.95a3
#
DISCID=9c07ff0a
DTITLE=Andy Childs - Andy Childs
DYEAR=1993
DGENRE=Country
TTITLE0=Broken
TTITLE1=Exception To The Rule
TTITLE2=I Wouldn't Know
TTITLE3=Simple Life
TTITLE4=I'm Still Letting Go
TTITLE5=I'm Ready
TTITLE6=Holdin' Out For You
TTITLE7=Mine All Mine
TTITLE8=Let The Good Times Roll
TTITLE9=Your Love Amazes Me
EXTD=YEAR: 1993 ID3G:   2
EXTT0=
EXTT1=
EXTT2=
EXTT3=
EXTT4=
EXTT5=
EXTT6=
EXTT7=
EXTT8=
EXTT9=
PLAYORDER=
